<svg width="11" height="20" viewBox="0 0 11 20" fill="none" xmlns="http://www.w3.org/2000/svg">
<path d="M3.20466 11.2398C3.1293 11.2398 1.54842 11.2403 0.819305 11.2396C0.443945 11.2394 0.310025 11.1045 0.310025 10.7267C0.309545 9.75639 0.309305 8.78607 0.310025 7.81575C0.310265 7.44279 0.451865 7.30047 0.822425 7.30023C1.55154 7.29975 3.12378 7.29999 3.20466 7.29999C3.20466 7.23351 3.20442 5.83263 3.20466 5.18751C3.20514 4.23375 3.3753 3.32079 3.85986 2.48487C4.35594 1.62927 5.07787 1.04319 6.00307 0.704309C6.59562 0.487109 7.21074 0.400469 7.83954 0.399989C8.62626 0.399509 9.41298 0.400229 10.1999 0.401669C10.5381 0.402149 10.6881 0.551669 10.6888 0.892229C10.6903 1.80495 10.6903 2.71767 10.6888 3.63015C10.6883 3.97431 10.5446 4.11255 10.1987 4.11639C9.55386 4.12335 8.9085 4.11903 8.26434 4.14495C7.6137 4.14495 7.27146 4.46271 7.27146 5.13615C7.25586 5.84847 7.26498 6.56151 7.26498 7.29975C7.32594 7.29975 9.17754 7.29951 10.043 7.29975C10.4361 7.29975 10.5705 7.43487 10.5705 7.83015C10.5705 8.79519 10.5703 9.76047 10.5695 10.7255C10.5693 11.115 10.4431 11.2394 10.0475 11.2396C9.1821 11.2401 7.3377 11.2398 7.25706 11.2398V19.0506C7.25706 19.467 7.12602 19.5998 6.71514 19.5998C5.71338 19.5998 4.71138 19.6 3.70962 19.5998C3.3465 19.5998 3.2049 19.4586 3.2049 19.0955C3.20466 16.5518 3.20466 11.3291 3.20466 11.2398Z" fill="#3D6AD6"/>
</svg>
