<svg width="24" height="24" viewBox="0 0 24 24" fill="none" xmlns="http://www.w3.org/2000/svg">
<path d="M23.8073 10.141C23.914 10.141 24.0005 10.2275 24.0005 10.3342V12.3623C24.0005 13.1214 23.93 13.8636 23.7947 14.5836C22.7486 20.1762 17.8216 24.4027 11.9159 24.362C5.28919 24.3163 -0.0141532 18.962 0.00051865 12.3353C0.0150968 5.7204 5.38219 0.362305 12.0005 0.362305C15.243 0.362305 18.1849 1.64865 20.3449 3.73815C20.4229 3.81357 20.4249 3.93788 20.3482 4.01457L17.4789 6.88384C17.405 6.95771 17.2857 6.95963 17.21 6.88759C15.8543 5.59716 14.0201 4.80493 12.0005 4.80493C7.82996 4.80493 4.4716 8.13943 4.44328 12.3099C4.41483 16.5076 7.80933 19.9196 12.0005 19.9196C15.401 19.9196 18.2772 17.6732 19.2256 14.5836H12.1936C12.087 14.5836 12.0005 14.4971 12.0005 14.3904V10.3341C12.0005 10.2274 12.087 10.1409 12.1936 10.1409H23.8073V10.141Z" fill="#2196F3"/>
<path d="M23.8064 10.141H22.3577C22.4644 10.141 22.5509 10.2275 22.5509 10.3342V12.3623C22.5509 13.1214 22.4804 13.8636 22.3451 14.5836C21.3471 19.919 16.8169 24.011 11.2744 24.3406C11.4865 24.3532 11.6999 24.3605 11.9149 24.362C17.8207 24.4027 22.7477 20.1762 23.7938 14.5836C23.929 13.8636 23.9995 13.1214 23.9995 12.3623V10.3341C23.9995 10.2275 23.913 10.141 23.8064 10.141Z" fill="#1E88E5"/>
<path d="M5.13614 9.1974L1.4917 6.56415C3.53629 2.86613 7.47623 0.362305 12.0005 0.362305C15.243 0.362305 18.185 1.64865 20.3449 3.73815C20.4229 3.81357 20.4249 3.93788 20.3482 4.01457L17.4789 6.88384C17.4052 6.95757 17.2859 6.95987 17.2103 6.88796C15.8547 5.5973 14.0203 4.80498 12.0005 4.80498C8.95682 4.80498 6.33323 6.60423 5.13614 9.1974Z" fill="#F44336"/>
<path d="M4.0835 8.43725L5.13561 9.19742C6.22826 6.83051 8.50957 5.12585 11.2138 4.84624C11.2341 4.84404 11.2537 4.84137 11.2744 4.8394C11.0364 4.81681 10.7952 4.80499 10.5513 4.80499C7.80176 4.80499 5.40551 6.25451 4.0835 8.43725Z" fill="#E53935"/>
<path d="M18.8956 3.73815C18.9736 3.81357 18.9756 3.93788 18.8989 4.01462L16.57 6.34351C16.7931 6.5132 17.0067 6.6947 17.2093 6.88763C17.285 6.95968 17.4044 6.95776 17.4783 6.88388L20.3475 4.01462C20.4243 3.93788 20.4222 3.81362 20.3442 3.73815C18.1843 1.64865 15.2423 0.362305 11.9998 0.362305C11.7565 0.362305 11.5151 0.370414 11.2754 0.384711C14.2304 0.560727 16.8976 1.8054 18.8956 3.73815Z" fill="#E53935"/>
<path d="M20.8022 20.5175C18.6108 22.8822 15.4778 24.3623 11.9995 24.3623C7.30138 24.3623 3.23394 21.6625 1.26416 17.7292L4.98486 15.1795C6.10138 17.9576 8.82154 19.9196 11.9995 19.9196C13.9938 19.9196 15.8076 19.147 17.1578 17.8847L20.8022 20.5175Z" fill="#4CAF50"/>
<path d="M4.98534 15.1796L3.88818 15.9314C5.16248 18.3053 7.66837 19.9197 10.5512 19.9197C10.795 19.9197 11.036 19.9077 11.2739 19.8852C8.41223 19.6123 6.01575 17.7436 4.98534 15.1796Z" fill="#43A047"/>
<path d="M11.9999 24.3623C15.4782 24.3623 18.6112 22.8822 20.8026 20.5175L19.91 19.8726C17.8524 22.4334 14.7656 24.1322 11.2773 24.3405C11.5164 24.3547 11.7573 24.3623 11.9999 24.3623Z" fill="#43A047"/>
<path d="M4.44267 12.3623C4.44267 13.358 4.63533 14.3089 4.98544 15.1795L1.26469 17.7292C0.455391 16.1144 0 14.2915 0 12.3623C0 10.2593 0.540844 8.28277 1.49119 6.56415L5.13562 9.1974C4.69088 10.1598 4.44267 11.2323 4.44267 12.3623Z" fill="#FFC107"/>
<path d="M3.88846 15.9314L4.98562 15.1795C4.63551 14.3089 4.44285 13.358 4.44285 12.3623C4.44285 11.2323 4.69105 10.1598 5.1358 9.19737L4.08369 8.43719C3.40049 9.56524 3.00398 10.8889 2.99432 12.3099C2.98541 13.6202 3.31012 14.854 3.88846 15.9314Z" fill="#FFB300"/>
</svg>
