<svg width="22" height="22" viewBox="0 0 22 22" fill="none" xmlns="http://www.w3.org/2000/svg">
<path d="M16.6601 21.6699C16.1301 21.6699 15.4501 21.4999 14.6001 20.9999L11.6101 19.2299C11.3001 19.0499 10.7001 19.0499 10.4001 19.2299L7.40012 20.9999C5.63012 22.0499 4.59012 21.6299 4.12012 21.2899C3.66012 20.9499 2.94012 20.0799 3.41012 18.0799L4.12012 15.0099C4.20012 14.6899 4.04012 14.1399 3.80012 13.8999L1.32012 11.4199C0.0801177 10.1799 0.180118 9.11995 0.350118 8.59995C0.520118 8.07995 1.06012 7.15995 2.78012 6.86995L5.97012 6.33995C6.27012 6.28995 6.70012 5.96995 6.83012 5.69995L8.60012 2.16995C9.40012 0.559946 10.4501 0.319946 11.0001 0.319946C11.5501 0.319946 12.6001 0.559946 13.4001 2.16995L15.1601 5.68995C15.3001 5.95995 15.7301 6.27995 16.0301 6.32995L19.2201 6.85995C20.9501 7.14995 21.4901 8.06995 21.6501 8.58995C21.8101 9.10995 21.9101 10.1699 20.6801 11.4099L18.2001 13.8999C17.9601 14.1399 17.8101 14.6799 17.8801 15.0099L18.5901 18.0799C19.0501 20.0799 18.3401 20.9499 17.8801 21.2899C17.6301 21.4699 17.2301 21.6699 16.6601 21.6699ZM11.0001 17.5899C11.4901 17.5899 11.9801 17.7099 12.3701 17.9399L15.3601 19.7099C16.2301 20.2299 16.7801 20.2299 16.9901 20.0799C17.2001 19.9299 17.3501 19.3999 17.1301 18.4199L16.4201 15.3499C16.2301 14.5199 16.5401 13.4499 17.1401 12.8399L19.6201 10.3599C20.1101 9.86995 20.3301 9.38995 20.2301 9.05995C20.1201 8.72995 19.6601 8.45995 18.9801 8.34995L15.7901 7.81995C15.0201 7.68995 14.1801 7.06995 13.8301 6.36995L12.0701 2.84995C11.7501 2.20995 11.3501 1.82995 11.0001 1.82995C10.6501 1.82995 10.2501 2.20995 9.94012 2.84995L8.17012 6.36995C7.82012 7.06995 6.98012 7.68995 6.21012 7.81995L3.03012 8.34995C2.35012 8.45995 1.89012 8.72995 1.78012 9.05995C1.67012 9.38995 1.90012 9.87995 2.39012 10.3599L4.87012 12.8399C5.47012 13.4399 5.78012 14.5199 5.59012 15.3499L4.88012 18.4199C4.65012 19.4099 4.81012 19.9299 5.02012 20.0799C5.23012 20.2299 5.77012 20.2199 6.65012 19.7099L9.64012 17.9399C10.0201 17.7099 10.5101 17.5899 11.0001 17.5899Z" fill="#78828A"/>
</svg>
