<svg width="32" height="32" viewBox="0 0 32 32" fill="none" xmlns="http://www.w3.org/2000/svg">
<g filter="url(#filter0_b_201_8291)">
<circle cx="16" cy="16" r="16" fill="#F9F9F9" fill-opacity="0.16"/>
</g>
<path d="M13.4252 23.225C13.2668 23.225 13.1085 23.1667 12.9835 23.0417C12.7418 22.8 12.7418 22.4 12.9835 22.1583L18.4168 16.725C18.8168 16.325 18.8168 15.675 18.4168 15.275L12.9835 9.84168C12.7418 9.60002 12.7418 9.20002 12.9835 8.95835C13.2252 8.71668 13.6252 8.71668 13.8668 8.95835L19.3002 14.3917C19.7252 14.8167 19.9668 15.3917 19.9668 16C19.9668 16.6083 19.7335 17.1833 19.3002 17.6083L13.8668 23.0417C13.7418 23.1583 13.5835 23.225 13.4252 23.225Z" fill="#F9F9F9"/>
<defs>
<filter id="filter0_b_201_8291" x="-20" y="-20" width="72" height="72" filterUnits="userSpaceOnUse" color-interpolation-filters="sRGB">
<feFlood flood-opacity="0" result="BackgroundImageFix"/>
<feGaussianBlur in="BackgroundImageFix" stdDeviation="10"/>
<feComposite in2="SourceAlpha" operator="in" result="effect1_backgroundBlur_201_8291"/>
<feBlend mode="normal" in="SourceGraphic" in2="effect1_backgroundBlur_201_8291" result="shape"/>
</filter>
</defs>
</svg>
