<svg width="113" height="56" viewBox="0 0 113 56" fill="none" xmlns="http://www.w3.org/2000/svg">
<path d="M56.8349 13.2223C57.5744 13.2569 58.2807 13.5393 58.8401 14.0241C59.6025 14.7458 59.8023 15.9491 59.4415 16.9119C58.0389 19.7991 54.7031 21.7276 52.4236 22.3656C51.0599 22.6863 49.336 22.6863 48.0925 22.2052C47.4906 22.5661 46.9827 23.7322 46.2477 23.2476C45.1838 22.4167 46.1048 21.1164 45.4906 20.1937C45.3639 20.0037 45.045 19.9897 44.8846 19.6789C44.0421 17.834 45.085 16.0694 46.2477 14.6662C48.1861 12.5035 53.7473 10.0939 56.8349 13.2223ZM50.3784 14.6656C49.2953 14.8661 48.0722 15.3373 47.411 16.1095C46.7492 16.8811 46.3285 17.6336 46.7294 18.4354C48.1332 17.393 48.8148 15.9491 50.3789 15.0671C50.3784 14.9061 50.6189 14.7859 50.3784 14.6656ZM56.9157 15.0671C54.1482 14.826 52.0628 16.9119 50.0977 18.9165C49.9774 19.2373 49.2558 19.5981 49.8171 19.9589C52.4643 20.1995 54.9907 19.4383 56.9157 17.6731C57.4776 17.1519 57.8773 16.4703 57.5979 15.7481C57.4776 15.468 57.1946 15.1874 56.9157 15.0671ZM80.896 27.0175C82.1796 30.1458 83.262 35.0777 80.896 38.0858C80.2545 38.8075 79.132 39.4728 78.4103 38.9277C75.7631 36.8029 74.6411 33.7547 72.9967 31.0273C72.7562 30.907 72.7562 31.2283 72.6359 31.3486C72.0345 34.1155 73.1571 37.725 71.2728 39.8899C70.5511 40.0102 69.8759 39.6389 69.6284 38.9277C68.7057 36.0806 69.6673 33.1126 69.9079 30.2655C70.4697 28.8216 70.7103 27.1377 71.9537 26.0547C73.9589 26.8565 74.9211 29.1028 76.0832 30.7472C76.9263 31.9901 77.6073 33.3939 78.5695 34.5164C79.4115 34.1556 78.9972 33.0551 78.971 32.391C78.6491 29.7844 77.9275 27.3783 77.2453 24.892C77.2064 24.2505 76.8456 23.1675 77.526 22.7665C79.333 23.569 80.0936 25.4533 80.896 27.0175ZM68.7853 26.0547C68.7853 26.6566 68.3042 27.4085 67.9021 27.4986C64.0527 28.1 59.7617 27.7391 56.1528 28.9419C56.0325 29.3829 56.5537 29.4631 56.8344 29.5834C59.9215 30.0645 63.1707 30.1847 66.1787 30.9471C67.7691 31.3509 68.3449 33.2335 68.4651 34.7971C68.5389 36.0301 68.0648 37.5239 66.8609 38.3664C63.8941 40.2514 59.3625 40.1706 56.3538 38.4472C55.2039 37.8023 54.1081 36.7633 54.0279 35.4798C54.0349 34.4607 54.4695 33.6582 55.1912 33.2742C58.079 32.1109 61.6477 32.7535 64.1346 34.2364C64.2938 35.0388 63.4257 34.9952 63.0103 35.2793C60.2428 36.8836 58.158 33.4758 55.5915 34.7175C55.2307 34.958 54.9698 35.6291 55.391 35.8406C58.5589 37.2444 62.0882 36.2416 65.2159 35.3595C65.5768 35.2393 66.0184 34.8784 66.0579 34.5176C65.9376 33.2341 64.4943 32.954 63.5716 32.5932C60.8447 31.9116 57.8372 31.9116 54.9094 31.631C54.3481 31.5107 53.6328 31.1196 53.466 30.6688C53.1453 29.7065 53.1453 28.3829 53.867 27.5811C57.5961 24.2924 63.2503 24.5736 67.9823 25.4556C68.3036 25.5736 68.6644 25.6938 68.7853 26.0547ZM51.261 27.5788C51.6218 31.4282 51.8223 34.9981 51.7421 39.048C51.6619 39.5686 51.0605 39.6895 50.6596 39.8899C50.0181 40.0102 49.189 39.8737 48.9351 39.5291C48.0129 38.0445 48.3337 36.0405 48.2535 34.2358C48.3738 31.3892 48.3337 28.301 49.1361 25.6538C49.2895 25.2691 49.7375 24.9321 50.0983 25.1721C51.0605 25.6537 51.2209 26.6165 51.261 27.5788ZM95.8155 27.0175C96.0084 27.3417 96.2101 27.8425 95.8155 28.0599C94.0108 28.8617 91.5652 28.5009 89.4792 28.7414C88.9179 29.2225 88.4763 30.0244 88.6762 30.7466C88.8778 30.8669 89.0574 31.0499 89.2788 31.0267C90.5611 31.1074 92.4867 30.4253 93.3298 31.6281C93.5355 31.986 93.3019 33.3224 92.7284 33.3526C91.1637 33.5542 88.5908 33.1562 87.8349 33.5542C86.8727 34.1957 86.9523 35.4386 86.5914 36.442C87.2736 36.883 87.9877 36.4316 88.7965 36.3212C90.2816 36.0806 91.926 35.6396 93.4088 35.9603C93.6895 36.4815 94.091 37.0434 93.8098 37.6849C91.2816 39.6901 88.0208 41.7452 84.5467 40.2914C83.2429 39.7069 82.6618 37.725 83.1034 36.0417C83.3835 34.8383 84.6263 33.6757 83.8652 32.3921C83.7449 31.8303 84.0662 31.3497 84.5473 31.2295C85.8703 31.2295 85.5891 29.5851 86.2713 28.8228C85.5095 27.9808 83.5851 28.0209 83.7856 26.3365C84.7083 25.8554 85.8314 26.0157 86.8727 25.8554C89.2387 25.3737 91.8853 25.093 94.2932 25.3737C94.7725 25.4701 95.4146 26.4161 95.8155 27.0175ZM38.5483 17.8741C42.249 20.8991 47.0501 26.0553 46.4488 31.9901C45.7265 36.6826 40.7539 40.2113 36.5431 41.3344C32.4525 42.5372 27.3196 42.4169 23.1483 41.4547C22.8676 42.217 22.587 43.1386 21.7049 43.4599C21.1437 43.6604 20.4214 43.5401 19.9804 43.1792C18.7376 42.016 19.7399 39.7703 17.9351 39.0492C14.4059 37.5652 10.5959 34.6373 8.7918 31.0284C8.55125 30.3068 8.83189 29.5851 9.2729 29.0238C12.0404 26.8182 15.529 25.9361 19.0182 25.254C19.2187 25.3342 19.1385 25.0535 19.2988 24.9733C19.4993 22.5672 19.5795 20.1205 20.3412 17.9549C20.515 17.651 20.9426 17.554 21.2238 17.7544C23.4295 19.4383 22.3865 22.6073 23.3493 24.8926C27.5601 25.093 31.771 25.2935 35.0992 27.6601C36.2224 28.5822 36.496 30.3434 36.1416 31.3497C35.7877 32.3544 34.6181 33.0743 33.535 33.1533C32.8128 33.1533 31.4497 33.2236 31.5298 32.6728C31.61 32.1214 33.983 31.219 33.2544 30.4665C32.2068 29.3852 26.9652 28.742 23.7165 28.3411C23.3156 28.2609 22.9478 28.3812 22.9478 28.8222C22.8676 31.8698 22.6271 35.2381 23.1483 38.1666C23.1884 38.3676 23.4289 38.6082 23.63 38.6471C29.3643 39.5698 35.4199 39.048 39.9114 35.7599C41.9968 34.0766 42.6789 31.7088 42.3175 29.1028C40.5128 21.8444 32.9336 17.4726 26.7176 14.6656C20.6626 12.0189 13.9648 10.6552 6.78661 11.0166C5.6437 11.1003 3.83258 11.4948 3.81921 11.8992C3.80585 12.3036 5.87089 12.1764 5.62336 12.9416C5.37642 13.7063 3.27768 13.2525 2.65596 13.0619C2.03424 12.8713 2.09467 11.9788 2.25504 11.4176C3.81921 8.65061 8.18403 8.42691 10.1555 8.32987C21.0629 8.04865 31.6106 12.2025 38.5483 17.8741ZM18.8979 28.6217C16.1304 28.6618 13.2031 28.9425 10.6366 29.9047C10.1154 30.1051 9.47336 30.6664 9.87429 31.3486C10.9167 32.7518 12.4076 33.904 13.8045 34.7169C15.2013 35.5286 17.0531 36.5617 18.7375 36.8029C19.1385 34.1957 19.1385 31.6292 19.0984 28.9425C18.9374 28.8623 19.0978 28.7019 18.8979 28.6217ZM101.79 24.9722C101.67 28.4608 98.4203 30.6269 98.4203 34.1155C98.5406 34.2358 98.622 34.3962 98.7812 34.3171C101.389 31.4694 103.955 27.419 107.765 26.2162C108.769 26.136 109.676 27.0082 110.051 27.6601C111.375 30.3068 111.055 34.0365 109.21 36.4426C107.306 38.8046 103.995 41.1746 100.227 40.7731C98.6638 44.6231 97.579 48.6736 96.9776 52.8845C96.6569 53.7264 95.8957 52.9646 95.4146 52.8043C92.1666 50.2378 94.8335 43.4436 95.0538 42.5767C95.274 41.7121 96.1432 39.6726 96.7789 37.9649C95.2548 35.2387 96.217 31.9494 97.4599 29.423C98.4221 27.7385 99.7469 26.0541 101.31 24.7711C101.509 24.7717 101.67 24.8118 101.79 24.9722ZM108.248 29.3033C107.766 29.2231 107.565 29.8652 107.165 29.9854C105.321 32.0708 103.475 34.1562 102.553 36.6425C103.797 36.8029 104.839 36.001 105.922 35.56C107.766 34.3967 108.93 32.4729 108.809 30.2667C108.729 29.9047 108.408 29.624 108.248 29.3033Z" fill="#F9F9F9"/>
</svg>
