<svg width="112" height="56" viewBox="0 0 112 56" fill="none" xmlns="http://www.w3.org/2000/svg">
<path fill-rule="evenodd" clip-rule="evenodd" d="M4.94092 12.9993H25.8795V43.001H4.94092V12.9993ZM7.95887 39.9807H22.8511V16.0207H7.95887V39.9807Z" fill="#FFCD1A"/>
<path fill-rule="evenodd" clip-rule="evenodd" d="M39.7882 26.4598H38.493C36.7917 24.0566 35.1044 21.6685 33.4194 18.9695H33.4071V26.4598H31.9755V16.0161H33.2718C34.9731 18.4024 36.6581 20.7737 38.3274 23.4587H38.3571V16.0161H39.7888V26.4598H39.7882ZM43.1914 22.3262C43.6068 20.9532 44.0252 19.6854 44.3988 18.0735H44.429C44.8462 19.6854 45.2198 20.9538 45.6074 22.3262H43.1914ZM43.8758 16.0161L40.2676 26.4598H41.8189L42.7265 23.6092H45.8764L46.6962 26.4598H48.6968L45.3686 16.0161H43.8758ZM50.3812 26.4598V17.417H47.6352V16.0161H54.9151V17.417H52.1714V26.4598H50.3812ZM55.4956 16.0161H57.2736V26.4598H55.4956V16.0161ZM62.7935 25.1449C60.9266 25.1449 60.2706 23.0862 60.2706 21.0868C60.2706 19.163 61.0161 17.3275 62.7935 17.3275C64.5686 17.3275 65.3118 19.163 65.3118 21.0868C65.3118 23.0862 64.6569 25.1449 62.7935 25.1449ZM62.7935 26.6364C65.5227 26.6364 67.2228 24.2059 67.2228 21.0863C67.2228 18.163 65.3461 15.8359 62.7935 15.8359C60.2433 15.8359 58.3584 18.163 58.3584 21.0863C58.359 24.2065 60.062 26.6364 62.7935 26.6364ZM76.1291 26.4598H74.8322C73.1297 24.0566 71.4435 21.6685 69.7597 18.9695H69.7451V26.4598H68.3152V16.0161H69.6121C71.3111 18.4024 72.9973 20.7737 74.6654 23.4587H74.6962V16.0161H76.1297V26.4598H76.1291ZM79.5305 22.3262C79.9495 20.9532 80.3649 19.6854 80.7403 18.0735H80.7699C81.1877 19.6854 81.5596 20.9538 81.9465 22.3262H79.5305ZM80.2185 16.0161L76.6085 26.4598H78.161L79.0686 23.6092H82.2179L83.0383 26.4598H85.0365L81.7089 16.0161H80.2185ZM85.5566 16.0161H87.3351V25.0565H90.8691V26.4598H85.5566V16.0161ZM38.6877 35.1952V39.5054C37.7319 39.8802 36.7319 40.1469 35.7203 40.1469C32.646 40.1469 30.707 37.7599 30.707 34.6862C30.707 31.8356 32.646 29.3452 35.779 29.3452C36.747 29.3452 37.7173 29.7049 38.3147 30.1517L37.7325 31.3899C37.256 31.0942 36.5082 30.8403 35.8231 30.8403C33.915 30.8403 32.6158 32.3475 32.6158 34.7199C32.6158 37.1946 34.1085 38.6553 35.6453 38.6553C36.1206 38.6553 36.5256 38.5984 36.9004 38.4026V35.1952H38.6877ZM45.0908 30.9298H42.1037V33.7926H45.0275V35.1952H42.1037V38.5647H45.6242V39.9691H40.3123V29.5248H45.0908V30.9298ZM50.6102 38.6548C48.7433 38.6548 48.0861 36.5979 48.0861 34.5973C48.0861 32.6746 48.8322 30.8397 50.6102 30.8397C52.3841 30.8397 53.1284 32.6746 53.1284 34.5973C53.1284 36.5979 52.4707 38.6548 50.6102 38.6548ZM50.6102 40.1469C53.3388 40.1469 55.0383 37.7152 55.0383 34.5967C55.0383 31.6735 53.1598 29.3447 50.6102 29.3447C48.0559 29.3447 46.1785 31.6735 46.1785 34.5967C46.1779 37.7158 47.8758 40.1469 50.6102 40.1469ZM63.6302 35.1952V39.5054C62.6744 39.8802 61.6773 40.1469 60.6617 40.1469C57.5897 40.1469 55.649 37.7599 55.649 34.6862C55.649 31.8356 57.5897 29.3452 60.7227 29.3452C61.693 29.3452 62.661 29.7049 63.2566 30.1517L62.6744 31.3899C62.1968 31.0942 61.4554 30.8403 60.768 30.8403C58.8558 30.8403 57.5577 32.3475 57.5577 34.7199C57.5577 37.1946 59.051 38.6553 60.5879 38.6553C61.0667 38.6553 61.4676 38.5984 61.8418 38.4026V35.1952H63.6302ZM67.0654 30.9298H67.8538C68.9102 30.9298 69.5087 31.5387 69.5087 32.6142C69.5087 34.0151 68.6598 34.6409 67.8085 34.6856C67.629 34.7036 67.2106 34.7188 67.0654 34.7315V30.9298ZM71.5993 39.9691L69.4918 35.6444C70.6405 35.0343 71.3006 33.7926 71.3006 32.5393C71.3006 30.5085 70.0601 29.5248 68.0607 29.5248H65.2711V39.9691H67.0654V36.0308H67.8701L69.5528 39.9691H71.5993ZM74.5521 35.8361C74.9688 34.4613 75.3865 33.1947 75.7607 31.5834H75.7903C76.2081 33.1947 76.58 34.4613 76.9681 35.8361H74.5521ZM75.2372 29.5248L71.626 39.9691H73.1774L74.0885 37.1185H77.2377L78.0535 39.9691H80.0564L76.7276 29.5248H75.2372ZM83.4119 29.5248H80.6223V39.9691H82.4131V36.0308H83.2167C85.3514 36.0308 86.6507 34.2998 86.6507 32.5393C86.6507 30.5079 85.4113 29.5248 83.4119 29.5248ZM83.1609 34.6862C82.975 34.7031 82.538 34.717 82.4131 34.7292V30.9298H83.2167C84.2608 30.9298 84.8599 31.5387 84.8599 32.6142C84.8599 34.0151 84.0121 34.6415 83.1609 34.6862ZM94.9439 39.9691H93.1543V34.943H89.4368V39.9691H87.6663V29.5248H89.4368V33.5381H93.1543V29.5544H94.9439V39.9691ZM96.658 29.5248H98.4372V39.9691H96.658V29.5248ZM106.49 31.4207C106.056 31.1517 105.343 30.8397 104.654 30.8397C102.831 30.8397 101.508 32.3469 101.508 34.7193C101.508 37.194 102.969 38.6548 104.7 38.6548C105.334 38.6518 105.954 38.4706 106.49 38.1318L106.984 39.431C106.443 39.8035 105.492 40.1469 104.628 40.1469C101.553 40.1469 99.6126 37.7599 99.6126 34.6862C99.6126 31.8356 101.536 29.3452 104.654 29.3452C105.581 29.3452 106.443 29.7357 107.059 30.1517L106.49 31.4207Z" fill="#F9F9F9"/>
</svg>
