<svg width="96" height="96" viewBox="0 0 96 96" fill="none" xmlns="http://www.w3.org/2000/svg">
<path fill-rule="evenodd" clip-rule="evenodd" d="M2.82324 40.4482V46.7484H21.2522C23.3942 46.7484 26.131 44.7677 26.131 41.4911C26.131 40.1733 26.635 39.3137 25.0861 37.5706L22.7289 34.7776C21.3782 33.5175 22.8902 33.5175 24.0248 33.5175H31.8056V46.7484H37.9763V33.5175H46.2931V27.8513H19.3621C16.0855 27.8513 14.4833 30.9974 14.5735 32.6355C14.6641 34.2735 14.9654 36.3344 17.6882 38.8102C20.1719 41.0678 16.4586 40.4482 16.0855 40.4482H2.82324ZM59.9379 27.8513H49.9831L44.4025 46.7489H50.6131L51.6206 44.1028H58.1728L59.1455 46.7489H65.229L59.9379 27.8513ZM53.0071 39.5662L55.1492 32.6355L57.1658 39.5662H53.0071ZM84.8871 40.4482C82.493 40.4482 82.493 39.5662 82.493 39.5662C84.5445 39.5662 86.3633 36.5775 86.3633 33.5175C86.3633 30.4576 83.3751 27.8513 80.98 27.8513H67.5872V46.7489H74.3924V40.4487C74.3924 40.4487 77.29 43.8508 78.8021 45.2369C80.3146 46.6229 80.4401 46.7489 82.4925 46.7489H93.175V40.4487C93.176 40.4482 87.2812 40.4482 84.8871 40.4482ZM78.7124 36.0381H74.3934V32.6355H78.7124C80.6926 32.6355 81.0353 36.0381 78.7124 36.0381ZM2.82324 49.1425H9.78533L11.5494 55.4437L13.1874 49.1425H20.4962L22.3862 55.4437L24.2768 49.1425H30.325L24.7803 68.0446H19.2361L16.8067 59.0973L14.0695 68.0446H8.39929L2.82324 49.1425ZM44.6132 49.2516H34.6584L29.0784 68.1487H35.2884L36.2964 65.5031H42.8491L43.8218 68.1487H49.9059L44.6132 49.2516ZM37.683 60.966L39.8251 54.0352L41.8411 60.966H37.683ZM85.0126 54.8137C83.8796 54.8137 82.6439 54.9461 83.9951 56.2057L86.3528 58.9992C87.9013 60.7423 87.8764 61.469 87.8764 62.7878C87.8764 66.0639 84.6351 68.0446 82.493 68.0446L67.6037 68.1447C65.5522 68.1447 65.4267 68.0192 63.9142 66.6331C62.4027 65.2471 59.5041 61.8445 59.5041 61.8445V68.1447H52.6999V49.2476H66.0926C68.4867 49.2476 71.4759 51.8543 71.4759 54.9138C71.4759 57.9742 69.6571 60.9625 67.6047 60.9625C67.6047 60.9625 68.5071 61.8699 70.0192 61.8699C71.5317 61.8699 77.3538 61.8759 77.3538 61.8759C77.7263 61.8759 81.4392 62.4954 78.956 60.2378C76.2332 57.7621 75.9319 55.7022 75.8412 54.0641C75.7506 52.4261 77.167 49.143 80.4421 49.143H93.177V54.8142H85.0126V54.8137ZM63.8236 57.4339H59.5036V54.0312H63.8236C65.8043 54.0312 66.1464 57.4339 63.8236 57.4339Z" fill="#F9F9F9"/>
</svg>
